{"title":"Spectre.2015.Rus.CAMRip..avi","uid":12729540,"size":2204547072,"categoryP":"video","categoryS":"movies","magnet":"?xt=urn:btih:bc3657819d11f48d3735ee96bed7e94fcc31ac65&amp;dn=Spectre.2015.Rus.CAMRip..avi&amp;tr=udp%3A%2F%2Ftracker.leechers-paradise.org%3A6969&amp;tr=udp%3A%2F%2Fzer0day.ch%3A1337&amp;tr=udp%3A%2F%2Fopen.demonii.com%3A1337&amp;tr=udp%3A%2F%2Ftracker.coppersurfer.tk%3A6969&amp;tr=udp%3A%2F%2Fexodus.desync.com%3A6969","seeders":0,"leechers":0,"uploader":"niif111","files":1,"time":1447090719,"description":"Spectre.2015.Rus.CAMRip..avi\r\nFormat                                   : AVI\r\nFormat/Info                              : Audio Video Interleave\r\nFormat profile                           : OpenDML\r\nFile size                                : 2.05 GiB\r\nDuration                                 : 2h 19mn\r\nOverall bit rate                         : 2 107 Kbps\r\nMovie name                               : 007.SpEkt0r.2015.D.CAMRip.ELEKTRI4KA.uniongang.tv\r\nWriting application                      : VirtualDubMod 1.5.10.3 | www.virtualdub-fr.org || (build 2550/release)\r\nCopyright                                : UNIONGANG&amp;RUSTORRENTS\r\n\r\nVideo\r\nID                                       : 0\r\nFormat                                   : MPEG-4 Visual\r\nFormat profile                           : Advanced   \r\nFormat settings, BVOP                    : 2\r\nFormat settings, QPel                    : No\r\nFormat settings, GMC                     : No warppoints\r\nFormat settings, Matrix                  : Default (MPEG)\r\nCodec ID                                 : XVID\r\nCodec ID/Hint                            : XviD\r\nDuration                                 : 2h 19mn\r\nBit rate                                 : 1 966 Kbps\r\nWidth                                    : 720 pixels\r\nHeight                                   : 240 pixels\r\nDisplay aspect ratio                     : 3.000\r\nFrame rate                               : 25.000 fps\r\nColor space                              : YUV\r\nChroma subsampling                       : 4:2:0\r\nBit depth                                : 8 bits\r\nScan type                                : Progressive\r\nCompression mode                         : Lossy\r\nBits/(Pixel*Frame)                       : 0.455\r\nStream size                              : 1.92 GiB (93%)\r\nWriting library                          : XviD 1.2.1 (UTC 2008-12-04)\r\n\r\nAudio Russian\r\nID                                       : 1\r\nFormat                                   : AC-3\r\nFormat/Info                              : Audio Coding 3\r\nMode extension                           : CM (complete main)\r\nFormat settings, Endianness              : Big\r\nCodec ID                                 : 2000\r\nDuration                                 : 2h 19mn\r\nBit rate mode                            : Constant\r\nBit rate                                 : 128 Kbps\r\nChannel(s)                               : 2 channels\r\nChannel positions                        : Front: L R\r\nSampling rate                            : 48.0 KHz\r\nBit depth                                : 16 bits\r\nCompression mode                         : Lossy\r\nStream size                              : 128 MiB (6%)\r\nAlignment                                : Split accross interleaves\r\nInterleave, duration                     : 40 ms (1.00 video frame)\r\nInterleave, preload duration             : 500 ms","torrent":{"xt":"urn:btih:bc3657819d11f48d3735ee96bed7e94fcc31ac65","amp;dn":"Spectre.2015.Rus.CAMRip..avi","amp;tr":["udp%3A%2F%2Ftracker.leechers-paradise.org%3A6969","udp%3A%2F%2Fzer0day.ch%3A1337","udp%3A%2F%2Fopen.demonii.com%3A1337","udp%3A%2F%2Ftracker.coppersurfer.tk%3A6969","udp%3A%2F%2Fexodus.desync.com%3A6969"],"infoHash":"bc3657819d11f48d3735ee96bed7e94fcc31ac65","infoHashBuffer":{"type":"Buffer","data":[188,54,87,129,157,17,244,141,55,53,238,150,190,215,233,79,204,49,172,101]},"announce":[],"urlList":[]}}